# xmcd
# 
# Track frame offsets:
#     150
#     15595
#     35304
#     58718
# 
# Disc length: 1048
# 
# Revision: 0
# Processed by: cddbd v1.5.2PL0 Copyright (c) Steve Scherf et al.
# Submitted via: BonkEnc v1.0.6
# 
DISCID=27041604
DTITLE=Dizzee Rascal featuring Calvin Harris and Chrome - Dance Wiv Me
DYEAR=2008
DGENRE=
TTITLE0=Dance Wiv Me (Radio Mix)
TTITLE1=Dance Wiv Me (Extended Mix)
TTITLE2=Dance Wiv Me (Niteryders Remix)
TTITLE3=Dance Wiv Me (Agent X Remix)
EXTD=
EXTT0=
EXTT1=
EXTT2=
EXTT3=
PLAYORDER=
